<svg xmlns="http://www.w3.org/2000/svg" xmlns:xlink="http://www.w3.org/1999/xlink" width="665.171" height="373.915" viewBox="0 0 665.171 373.915">
  <defs>
    <linearGradient id="linear-gradient" x1="0.5" y1="0.943" x2="0.5" y2="0.101" gradientUnits="objectBoundingBox">
      <stop offset="0" stop-color="#1f3a65"/>
      <stop offset="1" stop-color="#294a7a"/>
    </linearGradient>
    <linearGradient id="linear-gradient-2" x1="0.501" y1="1.038" x2="0.501" y2="0.165" xlink:href="#linear-gradient"/>
    <linearGradient id="linear-gradient-3" x1="0.5" y1="1.03" x2="0.5" y2="0.252" xlink:href="#linear-gradient"/>
    <linearGradient id="linear-gradient-4" x1="0.509" y1="0.87" x2="0.492" y2="0.144" gradientUnits="objectBoundingBox">
      <stop offset="0" stop-color="#3f2323"/>
      <stop offset="1" stop-color="#5e3434"/>
    </linearGradient>
    <linearGradient id="linear-gradient-5" x1="-0.001" y1="0.503" x2="1.001" y2="0.503" xlink:href="#linear-gradient"/>
    <linearGradient id="linear-gradient-6" x1="0.945" y1="-0.443" x2="0.223" y2="0.843" gradientUnits="objectBoundingBox">
      <stop offset="0" stop-color="#e2e8f7"/>
      <stop offset="1" stop-color="#fff"/>
    </linearGradient>
  </defs>
  <g id="Group_338" data-name="Group 338" transform="translate(-1015.3 -1394.9)">
    <g id="Group_208" data-name="Group 208" transform="translate(1015.3 1394.9)">
      <g id="Group_172" data-name="Group 172" transform="translate(93.708 0)">
        <path id="Path_7346" data-name="Path 7346" d="M642.742,291.287A327.444,327.444,0,0,1,639.2,343c-.208,1.145-.312,2.289-.52,3.434a209.821,209.821,0,0,1-4.474,20.913c-.312,1.145-.624,2.185-.936,3.225-6.555,22.994-15.919,38.5-25.8,44.22H189.413s-35.688-30.9-42.763-75.017c-.208-1.145-.312-2.289-.52-3.434-2.809-21.954,1.665-47.029,20.913-73.04,8.74-11.861,20.289-20.081,33.607-25.8l3.121-1.249c19.665-7.7,42.763-10.092,65.965-10.509h3.538c13.838-.1,27.572.52,40.578,1.04,1.249.1,2.5.1,3.642.208,21.121.936,40.058,1.561,53.9-.936h0a37.341,37.341,0,0,0,3.642-.832h0c15.295-3.746,22.786-12.381,17.376-31.006-10.509-36.1.208-62.636,23.618-77.2,1.145-.728,2.393-1.457,3.642-2.185,13.214-7.179,29.965-10.925,48.8-10.925,1.353,0,2.705,0,4.058.1a185.075,185.075,0,0,1,51.815,9.676A166.951,166.951,0,0,1,551.7,125.542c1.04.52,2.081,1.145,3.121,1.769a158.855,158.855,0,0,1,42.139,35.376c.832.936,1.561,1.873,2.289,2.809C629.424,202.536,642.43,250.4,642.742,291.287Z" transform="translate(-145.364 -103.9)" fill="#e4ebf7"/>
        <path id="Path_7347" data-name="Path 7347" d="M619.326,366.6c-.312,1.145-.624,2.185-.936,3.225a133.886,133.886,0,0,1-19.353-8.636C568.344,344.546,529.326,307.4,517.465,225.2c-5.1-35.48,1.457-69.191,19.352-100.4,1.04.52,2.081,1.145,3.121,1.769-15.711,27.364-24.555,60.035-19.145,98.116,11.653,80.74,49.734,117.156,79.7,133.387A123.424,123.424,0,0,0,619.326,366.6Z" transform="translate(-130.376 -103.054)" fill="#fff"/>
        <path id="Path_7348" data-name="Path 7348" d="M622.494,340.808c-.208,1.145-.312,2.289-.52,3.434-19.353-9.052-43.8-28.925-55.144-71.792-11.029-41.618-6.659-78.555,13.526-111.85.832.936,1.561,1.873,2.289,2.809-19.145,32.254-23.2,68.046-12.486,108.208C580.876,312.611,603.974,331.86,622.494,340.808Z" transform="translate(-128.55 -101.606)" fill="#fff"/>
        <path id="Path_7349" data-name="Path 7349" d="M454.35,174.231c1.665,54.624-4.578,89.9-20.185,114.347-16.335,25.7-43.491,41.2-88.127,50.358a125.733,125.733,0,0,1-24.659,2.6c-25.179,0-48.8-8.22-69.607-24.243-24.139-18.624-42.659-46.717-53.272-79.6l3.121-1.249c10.4,32.358,28.509,59.931,52.127,78.243,26.636,20.6,58.266,27.78,91.457,21.017,83.133-16.96,108.728-56.185,105.607-161.376-.936-29.861,4.37-53.376,15.5-70.335,1.353,0,2.705,0,4.058.1C458.824,120.439,453.413,144.058,454.35,174.231Z" transform="translate(-143.214 -103.896)" fill="#fff"/>
        <path id="Path_7350" data-name="Path 7350" d="M347.929,286.8a70.708,70.708,0,0,1-10.613.832c-26.74,0-57.434-16.231-72.416-62.012h3.538c16.439,49.214,51.711,62.428,78.971,57.954,36.832-6.035,72.208-43.907,65.341-102.381-2.913-25.075-3.121-46.4-1.457-64.509,1.145-.728,2.393-1.457,3.642-2.185-1.873,18.416-1.873,40.37,1.145,66.277C423.258,241.228,386.322,280.454,347.929,286.8Z" transform="translate(-140.528 -103.471)" fill="#fff"/>
        <path id="Path_7351" data-name="Path 7351" d="M368.579,220.6a42.486,42.486,0,0,1-7.387,16.96c-5.1,6.763-12.381,10.717-21.434,11.861-1.04.1-2.185.208-3.225.208a23.5,23.5,0,0,1-15.4-5.827c-6.035-5.1-10.509-13.006-13.734-21.538,1.249.1,2.5.1,3.642.208,3.017,7.6,6.971,14.462,12.173,18.832a20.153,20.153,0,0,0,16.023,4.786c8.22-1.04,14.67-4.578,19.249-10.509a38,38,0,0,0,6.451-14.15h0C366.186,221.12,367.331,220.912,368.579,220.6Z" transform="translate(-138.808 -99.178)" fill="#fff"/>
        <path id="Path_7352" data-name="Path 7352" d="M244.944,405.851H241.3c-14.983-34.439-36.728-57.329-64.509-68.254a103.287,103.287,0,0,0-30.173-6.763c-.208-1.145-.312-2.289-.52-3.434a109.171,109.171,0,0,1,31.942,7.075C207.071,345.92,229.545,369.851,244.944,405.851Z" transform="translate(-145.334 -94.857)" fill="#fff"/>
      </g>
      <g id="Group_207" data-name="Group 207" transform="translate(0 21.329)">
        <rect id="Rectangle_237" data-name="Rectangle 237" transform="translate(424.196 351.78)" fill="#fff" stroke="#0f22d3" stroke-miterlimit="10" stroke-width="1.61"/>
        <g id="Group_176" data-name="Group 176" transform="translate(89.093 86.773)">
          <g id="Group_174" data-name="Group 174" transform="translate(0 64.553)">
            <g id="Group_173" data-name="Group 173">
              <path id="Path_7353" data-name="Path 7353" d="M172.619,304.446l-10.4,10.717-4.37-6.347-1.457-2.081c-4.578,1.145-11.445-7.908-14.15-12.694s8.22-12.277,8.22-12.277c-1.769-5.306-8.948-8.636-9.156-10.2-.208-1.457,1.561-3.017,8.012,0s12.173,13.838,12.173,13.838c1.145-3.121-3.954-11.653-3.017-12.59s5.931.208,9.884,8.428c3.85,8.22,1.561,17.792,1.561,17.792v.1Z" transform="translate(-140.914 -269.841)" fill="#98b2d8"/>
              <path id="Path_7354" data-name="Path 7354" d="M150.159,280.41s7.7,8.844,6.867,12.277-4.682-.52-4.682-.52,3.538,4.162,2.393,5.514-5.41-2.081-5.41-2.081,5.1,6.347,0,5.41-11.549-10.613-6.659-11.549c0,0-.624-7.075,3.954-4.682C146.621,284.676,144.54,278.85,150.159,280.41Z" transform="translate(-140.928 -269.424)" fill="#b1c3e8"/>
            </g>
            <path id="Path_7355" data-name="Path 7355" d="M243.022,408.083s8.636-25.283,4.058-50.254v-.416c-.1-.624-.312-1.353-.416-1.977a104.014,104.014,0,0,1-11.965,8.74c-8.324,5.2-19.457,10.4-27.988,8.012-15.607-4.474-38.5-34.855-49.11-58.89a28.1,28.1,0,0,1,15.919-10.4s21.225,28.3,39.954,34.96a135.263,135.263,0,0,0,17.9-29.653c4.994-11.237,12.486-18.312,21.954-22.162a51.681,51.681,0,0,1,17.9-3.538l16.439-7.7a58.89,58.89,0,0,1,6.763.52c7.7,1.04,20.5,3.85,30.8,11.653,15.919,12.173,38.809,120.8,38.809,120.8H243.022Z" transform="translate(-140.254 -269.64)" fill="#b7cae5"/>
            <path id="Path_7356" data-name="Path 7356" d="M244.082,355.755c-.1-.728-.312-1.457-.416-2.185a104.02,104.02,0,0,1-11.965,8.74l4.89-41.41C241.48,339.94,243.769,354.091,244.082,355.755Z" transform="translate(-137.255 -267.775)" fill="#97b3d1"/>
            <path id="Path_7357" data-name="Path 7357" d="M290.6,275.524c-2.5,16.127-18.624,30.9-30.277,30.694-9.364-.208-10.717-13.526-10.821-20.081a51.683,51.683,0,0,1,17.9-3.538l16.439-7.7C283.731,274.9,286.436,275,290.6,275.524Z" transform="translate(-136.535 -269.636)" fill="#ced9ea"/>
            <path id="Path_7358" data-name="Path 7358" d="M262.2,390.167s36.936-38.393,38.5-78.867l10.925,34.023L307.46,380.8Z" transform="translate(-136.021 -268.164)" fill="#97b3d1"/>
            <path id="Path_7359" data-name="Path 7359" d="M262.81,403.539H221.4s.1-5.618,6.451-7.491,10.509-9.884,29.653-8.844Z" transform="translate(-137.672 -265.096)" fill="#98b2d8"/>
            <path id="Path_7360" data-name="Path 7360" d="M303.9,366.3s-19.457,11.237-50.15,19.145c0,0-4.266,10.3,3.225,18.832h59.41Z" transform="translate(-136.412 -265.938)" fill="#b6c5dd"/>
          </g>
          <g id="Group_175" data-name="Group 175" transform="translate(87.059)">
            <path id="Path_7361" data-name="Path 7361" d="M232.4,255.245s-8.844-12.173-7.7-20.393,8.636-6.243,8.636-6.243-.312-19.873,18.1-14.879c0,0-.416-6.035,3.642-5.931,4.058.208,10.3,9.468,10.3,9.468s1.561-6.867,4.266-5.2,3.538,8.74,9.26,12.069c5.723,3.434,9.26,7.8,4.786,21.642s-1.144,14.775-2.705,21.85c-1.561,6.763-2.705,10.821-6.867,11.237s-20.185-16.543-20.185-16.543Z" transform="translate(-224.602 -207.799)" fill="#5d7ca0"/>
            <path id="Path_7362" data-name="Path 7362" d="M283.513,275.705s-10.3,24.867-21.017,22.994c-5.41-.936-6.555-4.162-6.555-8.012,0-4.994,1.873-10.717-1.04-13.214l12.9-18.416L270.611,255C270.611,255.208,274.149,265.3,283.513,275.705Z" transform="translate(-223.376 -205.889)" fill="#98b2d8"/>
            <path id="Path_7363" data-name="Path 7363" d="M255.94,290.63c0-4.994,1.873-10.717-1.04-13.214L267.8,259c1.145,1.249,1.873,3.538,2.185,7.179C271.755,285.22,261.663,289.694,255.94,290.63Z" transform="translate(-223.376 -205.727)" fill="#799cbf"/>
            <path id="Path_7364" data-name="Path 7364" d="M230.9,244.181s3.538,32.046,16.543,39.329c11.341,6.243,25.179-12.694,24.971-22.058,0,0,4.994-3.746,4.162-9.884s-7.283-4.058-8.116,5.827c0,0-5.306-.416-6.243-12.694-3.329,2.705-6.867,1.873-10.613-1.457,0,0-1.873,6.867-11.445-1.145C240.16,241.892,236.519,246.886,230.9,244.181Z" transform="translate(-224.347 -206.411)" fill="#98b2d8"/>
          </g>
        </g>
        <g id="Group_182" data-name="Group 182" transform="translate(364.37 40.167)">
          <g id="Group_177" data-name="Group 177" transform="translate(18.208 200.18)">
            <path id="Path_7365" data-name="Path 7365" d="M529.6,363.6s16.855,28.2,22.786,41.931H492.764a255.452,255.452,0,0,0-9.364-32.358Z" transform="translate(-420.556 -355.068)" fill="#5d7ca0"/>
            <path id="Path_7366" data-name="Path 7366" d="M508.734,370.175c-3.225,10.821-8.22,20.081-15.607,27.052l1.977,8.532-72.1-.936,8.012-49.422Z" transform="translate(-423 -355.4)" fill="#799cbf"/>
          </g>
          <g id="Group_178" data-name="Group 178" transform="translate(215.792 29.822)">
            <path id="Path_7367" data-name="Path 7367" d="M614.249,222.915s2.393-14.983,7.179-20.289,17.688-13.11,19.249-10.4c1.561,2.809-11.445,11.549-11.445,11.549s5.827-1.353,10.925,7.283c4.994,8.636-11.133,15.4-11.133,15.4l-3.225,7.283L613,225.62Z" transform="translate(-612.896 -191.668)" fill="#799cbf"/>
            <path id="Path_7368" data-name="Path 7368" d="M630.443,203.741s-7.283,7.387-6.139,9.468c1.04,2.081,5.1-1.249,5.1-1.249s-3.225,4.994-.728,6.243,6.451-3.017,6.451-3.017-3.225,4.474-1.353,5.306,11.861-6.243,10.093-7.908-2.809-.312-2.809-.312,2.081-3.538,0-4.682a2.414,2.414,0,0,0-3.433.936s1.665-2.705.312-3.746-4.266.312-4.266.312S634.5,200.724,630.443,203.741Z" transform="translate(-612.443 -191.222)" fill="#98b2d8"/>
            <path id="Path_7369" data-name="Path 7369" d="M624.137,203.5c-2.185-.624-6.659,3.954-6.659,3.954-1.769,2.289-2.081,6.763-2.185,8.844-.208,5.827-2.393,8.844-2.393,8.844l6.555,4.058c5.1-6.451,3.434-14.879,2.6-17.792C624.449,207.768,625.49,203.814,624.137,203.5Z" transform="translate(-612.9 -191.191)" fill="#98b2d8"/>
          </g>
          <g id="Group_179" data-name="Group 179" transform="translate(0 60.635)">
            <path id="Path_7370" data-name="Path 7370" d="M636.795,234.1s-21.746,57.954-56.393,63.156a180.062,180.062,0,0,1-35.376,2.081c-9.78-.52-14.567-1.977-14.879-2.081h0s-9.468,17.688-3.329,43.075,8.428,30.694,8.428,30.694-46.613,34.335-84.59,3.017l-34.439-53.168L405.5,304.226s9.884-32.358,37.665-53.376h0A86.076,86.076,0,0,1,482.7,234.2a97.468,97.468,0,0,1,27.052-.208s7.491,2.081,19.769,6.659c6.555,2.393,14.566,5.514,23.514,9.364,25.387,10.925,32.358,14.15,32.358,14.15s27.052-26.74,34.023-42.867C619.419,221.093,633.361,222.445,636.795,234.1Z" transform="translate(-405.5 -221.282)" fill="#b7cae5"/>
            <path id="Path_7371" data-name="Path 7371" d="M461.289,259c-.1,13.006-2.913,25.6-4.162,35.376l21.538-4.37,33.5,33.087s4.266,9.676-4.37,11.341c-6.763,1.353-38.393,5.723-38.393,5.723-7.283,9.884-10.613,25.075-14.254,39.85L423,324.237Z" transform="translate(-404.792 -219.756)" fill="#97b3d1"/>
            <path id="Path_7372" data-name="Path 7372" d="M506.752,263.19c-14.983-3.85-22.89-17.272-27.052-29.549a97.469,97.469,0,0,1,27.052-.208s7.491,2.081,19.769,6.659C527.977,250.808,527.457,268.5,506.752,263.19Z" transform="translate(-402.498 -220.824)" fill="#ced9ea"/>
            <path id="Path_7373" data-name="Path 7373" d="M544.236,273.4a161.065,161.065,0,0,0-4.058,23.723c-9.78-.52-14.567-1.977-14.879-2.081h0S533.728,280.579,544.236,273.4Z" transform="translate(-400.653 -219.173)" fill="#97b3d1"/>
          </g>
          <g id="Group_180" data-name="Group 180" transform="translate(0 87.989)">
            <path id="Path_7374" data-name="Path 7374" d="M509.363,328.368l-37.353,5.41a1.95,1.95,0,0,1-2.289-1.665L461.5,275.2a1.95,1.95,0,0,1,1.665-2.289l37.353-5.41a1.95,1.95,0,0,1,2.289,1.665l8.22,56.913A1.982,1.982,0,0,1,509.363,328.368Z" transform="translate(-403.235 -246.768)" fill="#f2f4f9"/>
            <path id="Path_7375" data-name="Path 7375" d="M481.4,291.719l5.723-2.185s5.41-15.087,12.173-5.619c0,0,4.682-2.809,4.578-4.37s-.208-3.746-.208-3.746,9.468,2.081,7.387,15.295-10.2,11.549-18.208,11.653l-9.884,3.954Z" transform="translate(-402.429 -246.431)" fill="#98b2d8"/>
            <path id="Path_7376" data-name="Path 7376" d="M488.113,311.381s-44.636,29.549-63.884,15.295a74.809,74.809,0,0,1-8.012-6.867L405.5,303.162s9.884-32.358,37.665-53.376h0c9.156-4.162,18.832-2.6,19.353,5.931,1.145,20.289-16.231,32.775-18.312,42.035l39.954-8.116C484.159,289.532,490.61,296.5,488.113,311.381Z" transform="translate(-405.5 -247.573)" fill="#c1cfe5"/>
          </g>
          <g id="Group_181" data-name="Group 181" transform="translate(78.462)">
            <path id="Path_7377" data-name="Path 7377" d="M537.5,205.347s6.347-13.63,3.746-21.434-9.676-4.578-9.676-4.578-3.433-19.665-20.6-11.133c0,0-.728-6.035-4.682-5.1s-8.428,11.237-8.428,11.237-2.809-6.451-5.2-4.37-1.873,9.26-6.867,13.63-7.6,9.364-.624,22.162c6.971,12.694,3.85,14.358,6.763,21.017,2.705,6.347,4.682,10.092,8.948,9.676,4.162-.416,16.751-19.977,16.751-19.977Z" transform="translate(-480.911 -163.005)" fill="#5d7ca0"/>
            <path id="Path_7378" data-name="Path 7378" d="M489.9,235.178s9.884,24.347,25.387,20.289c5.306-1.353,5.306-6.971,4.682-10.717-.832-4.89-3.85-10.2-1.457-13.11l-16.127-15.607-3.538-3.434A72.69,72.69,0,0,1,489.9,235.178Z" transform="translate(-480.547 -160.998)" fill="#98b2d8"/>
            <path id="Path_7379" data-name="Path 7379" d="M519.521,244.617c-.832-4.89-3.85-10.2-1.457-13.11L501.937,215.9c-.832,1.457-1.145,3.85-.832,7.491C502.977,242.328,513.59,244.721,519.521,244.617Z" transform="translate(-480.099 -160.865)" fill="#799cbf"/>
            <path id="Path_7380" data-name="Path 7380" d="M536.392,194.32s2.6,32.15-8.948,41.723c-9.988,8.324-27.156-7.7-28.613-17.064,0,0-5.618-2.809-5.931-8.948s6.451-5.41,9.052,4.162c0,0,5.1-1.353,3.746-13.63,3.746,2.081,7.075.52,10.2-3.434,0,0,3.121,6.451,11.029-3.329A7.237,7.237,0,0,0,536.392,194.32Z" transform="translate(-480.427 -161.759)" fill="#98b2d8"/>
          </g>
        </g>
        <g id="Group_188" data-name="Group 188" transform="translate(241.51 91.627)">
          <g id="Group_183" data-name="Group 183" transform="translate(0 78.489)">
            <path id="Path_7381" data-name="Path 7381" d="M462.925,389.757h0a20.907,20.907,0,0,1-2.081,5.41c-8.116,14.775-43.179,12.382-43.179,12.382H337.654c-33.087,0-46.4-.832-49.526-11.133a8.815,8.815,0,0,1-.416-1.769c-2.289-11.965,8.948-51.087,29.549-77.931,10.613-13.734,21.538-20.913,31.214-24.659A61.786,61.786,0,0,1,371.781,288c10.2,0,18.312.728,25.283,2.393,18.624,4.37,28.4,14.879,43.075,33.607C458.139,346.786,466.983,373.63,462.925,389.757Z" transform="translate(-287.418 -287.896)" fill="url(#linear-gradient)"/>
            <path id="Path_7382" data-name="Path 7382" d="M320.9,378.615c8.636-13.63,11.445-32.566,13.838-51.815l7.491,39.121H407.57L419.536,326.8c-.312,18.312,2.185,36.208,10.925,53.376C430.461,380.176,387.7,428.557,320.9,378.615Z" transform="translate(-286.064 -286.326)" fill="#1f395e" opacity="0.22"/>
            <path id="Path_7383" data-name="Path 7383" d="M342.017,404.106h-4.37c-33.087,0-46.4-.832-49.526-11.133-1.769-8.116.52-16.647,10.4-19.249,15.5-3.954,42.555,11.757,42.555,11.757Z" transform="translate(-287.412 -284.453)" fill="url(#linear-gradient-2)"/>
            <path id="Path_7384" data-name="Path 7384" d="M458.783,386.456h0a20.9,20.9,0,0,1-2.081,5.41c-8.116,14.775-43.179,12.382-43.179,12.382H389.8l3.017-20.081s42.035-19.457,57.121-13.422C457.43,373.659,459.615,379.8,458.783,386.456Z" transform="translate(-283.276 -284.595)" fill="url(#linear-gradient-3)"/>
            <path id="Path_7385" data-name="Path 7385" d="M394.79,290.293c-.728,9.364-4.578,26.532-23.514,26.532-19.977,0-24.139-16.855-25.075-24.867a61.787,61.787,0,0,1,23.306-4.058C379.6,287.9,387.819,288.628,394.79,290.293Z" transform="translate(-285.04 -287.9)" fill="#1f395e"/>
          </g>
          <g id="Group_184" data-name="Group 184" transform="translate(41.96 135.714)">
            <path id="Path_7386" data-name="Path 7386" d="M412.511,403.159H335.829a3.287,3.287,0,0,1-3.329-3.329h0a3.287,3.287,0,0,1,3.329-3.329h76.682a3.287,3.287,0,0,1,3.33,3.329h0A3.286,3.286,0,0,1,412.511,403.159Z" transform="translate(-327.554 -340.731)" fill="#fff"/>
            <path id="Path_7387" data-name="Path 7387" d="M422.068,347.686l-.312,1.769h0l-7.908,49.214H335.71L327.8,347.686a4.14,4.14,0,0,1,4.058-4.786h86.046A4.214,4.214,0,0,1,422.068,347.686Z" transform="translate(-327.747 -342.9)" fill="#3855e1"/>
            <path id="Path_7388" data-name="Path 7388" d="M421.43,349.2l-7.908,49.214H335.8l26.324-2.705A71.258,71.258,0,0,0,421.43,349.2Z" transform="translate(-327.421 -342.645)" fill="#3150bc"/>
          </g>
          <g id="Group_187" data-name="Group 187" transform="translate(48.841)">
            <g id="Group_185" data-name="Group 185" transform="translate(20.851 72.87)">
              <path id="Path_7389" data-name="Path 7389" d="M370.627,309.968h-.52a17.39,17.39,0,0,1-7.491-1.561,13.715,13.715,0,0,1-7.8-12.8v-1.665c0-4.474-.312-8.22-.312-8.22v-1.977l28.2-1.249a56.813,56.813,0,0,0,1.145,10.509v.1A14.189,14.189,0,0,1,370.627,309.968Z" transform="translate(-354.396 -282.5)" fill="#feb19e"/>
              <path id="Path_7390" data-name="Path 7390" d="M383.741,293.109c-11.757,13.734-23.723,5.723-29.029.936,0-4.474-.312-8.22-.312-8.22v-1.977l28.2-1.249A68.958,68.958,0,0,0,383.741,293.109Z" transform="translate(-354.4 -282.496)" fill="#ff856a"/>
            </g>
            <g id="Group_186" data-name="Group 186">
              <path id="Path_7391" data-name="Path 7391" d="M346.245,271.571s8.74,24.555,23.306,24.555,20.6-26.532,20.6-26.532V246.6H345.1Z" transform="translate(-333.925 -211.082)" fill="#feb19e"/>
              <path id="Path_7392" data-name="Path 7392" d="M341.841,257.3s-4.266.832-3.538,5.723,5.2,10.925,8.844,7.7Z" transform="translate(-334.204 -210.649)" fill="#feb19e"/>
              <path id="Path_7393" data-name="Path 7393" d="M391.734,255.3s4.37.208,4.266,5.2-3.642,11.445-7.7,8.844Z" transform="translate(-332.177 -210.73)" fill="#feb19e"/>
              <path id="Path_7394" data-name="Path 7394" d="M393.916,257.033a119.1,119.1,0,0,1-3.434,14.046s-3.433-.728-4.578-9.78a12.377,12.377,0,0,1-12.173-5.618s-1.144,6.971-8.324,1.977c-4.786,3.954-10.509,4.37-16.856,1.665,0,0,1.04,9.156-1.977,13.526,0,0-1.145-3.642-4.682-13.838a3.576,3.576,0,0,0-2.5,1.457s-7.7-15.087-4.058-22.37,8.532-4.474,8.532-4.474-1.769-9.884,8.948-13.526,10.717-8.532,12.382-7.491c1.665.936,2.393,4.578,2.393,4.578s18.52-1.977,23.618,18c0,0,13.422.416,5.41,22.89C396.725,258.178,396.205,257.241,393.916,257.033Z" transform="translate(-334.36 -212.463)" fill="url(#linear-gradient-4)"/>
            </g>
          </g>
        </g>
        <path id="Path_7395" data-name="Path 7395" d="M408.6,282.6" transform="translate(-41.005 -117.999)" fill="#fff" stroke="#0f22d3" stroke-miterlimit="10" stroke-width="1.61"/>
        <g id="Group_190" data-name="Group 190" transform="translate(203.931 157.11)">
          <path id="Path_7396" data-name="Path 7396" d="M325.589,275.4H255.462a4.174,4.174,0,0,0-4.162,4.162v41.931a4.174,4.174,0,0,0,4.162,4.162h48.381l12.59,11.237a1.236,1.236,0,0,0,1.977-1.353l-3.434-9.884h10.613a4.174,4.174,0,0,0,4.162-4.162V279.562A4.174,4.174,0,0,0,325.589,275.4Z" transform="translate(-251.3 -275.4)" fill="#9abced" opacity="0.6"/>
          <g id="Group_189" data-name="Group 189" transform="translate(8.636 8.948)">
            <path id="Path_7397" data-name="Path 7397" d="M276.872,286.289H260.745a1.155,1.155,0,0,1-1.145-1.145h0A1.155,1.155,0,0,1,260.745,284h16.127a1.155,1.155,0,0,1,1.145,1.145h0A1.23,1.23,0,0,1,276.872,286.289Z" transform="translate(-259.6 -284)" fill="#9abced"/>
            <path id="Path_7398" data-name="Path 7398" d="M316.365,295.389H269.545a1.155,1.155,0,0,1-1.145-1.145h0a1.155,1.155,0,0,1,1.145-1.144h46.821a1.155,1.155,0,0,1,1.145,1.144h0C317.406,294.973,316.99,295.389,316.365,295.389Z" transform="translate(-259.244 -283.632)" fill="#9abced"/>
            <path id="Path_7399" data-name="Path 7399" d="M316.721,301.989H260.745a1.155,1.155,0,0,1-1.145-1.145h0a1.155,1.155,0,0,1,1.145-1.145h55.977a1.155,1.155,0,0,1,1.145,1.145h0A1.23,1.23,0,0,1,316.721,301.989Z" transform="translate(-259.6 -283.365)" fill="#9abced"/>
            <path id="Path_7400" data-name="Path 7400" d="M316.721,308.489H260.745a1.155,1.155,0,0,1-1.145-1.145h0a1.155,1.155,0,0,1,1.145-1.145h55.977a1.155,1.155,0,0,1,1.145,1.145h0A1.23,1.23,0,0,1,316.721,308.489Z" transform="translate(-259.6 -283.102)" fill="#9abced"/>
            <path id="Path_7401" data-name="Path 7401" d="M316.721,314.989H260.745a1.155,1.155,0,0,1-1.145-1.145h0a1.155,1.155,0,0,1,1.145-1.145h55.977a1.155,1.155,0,0,1,1.145,1.145h0C317.762,314.573,317.346,314.989,316.721,314.989Z" transform="translate(-259.6 -282.839)" fill="#9abced"/>
          </g>
        </g>
        <g id="Group_192" data-name="Group 192" transform="translate(78.243 220.37)">
          <path id="Path_7402" data-name="Path 7402" d="M641.575,413.721H132.269a1.754,1.754,0,0,1-1.769-1.769v-7.283a1.754,1.754,0,0,1,1.769-1.769H641.575a1.754,1.754,0,0,1,1.769,1.769v7.283A1.754,1.754,0,0,1,641.575,413.721Z" transform="translate(-130.5 -333.501)" fill="#c1c8d3"/>
          <g id="Group_191" data-name="Group 191" transform="translate(379.977)">
            <path id="Path_7403" data-name="Path 7403" d="M522.346,377H500.6v18.832a7.9,7.9,0,0,0,7.907,7.908h5.827a7.9,7.9,0,0,0,7.907-7.908V377Z" transform="translate(-495.502 -334.549)" fill="url(#linear-gradient-5)"/>
            <path id="Path_7404" data-name="Path 7404" d="M507.665,378.651v-5.827a1.754,1.754,0,0,1,1.769-1.769h2.185a1.754,1.754,0,0,0,1.769-1.769v-2.081a1.754,1.754,0,0,0-1.769-1.769h-7.075a8.836,8.836,0,0,1-8.844-8.844h0a8.836,8.836,0,0,1,8.844-8.844h9.364a1.754,1.754,0,0,0,1.769-1.769v-.624a9.169,9.169,0,0,1,9.156-9.156h0a9.169,9.169,0,0,1,9.156,9.156h0a9.88,9.88,0,0,1-9.884,9.884H507.561a1.754,1.754,0,0,0-1.769,1.769h0a1.754,1.754,0,0,0,1.769,1.769h9.052a6.039,6.039,0,0,1,6.035,6.035v3.746a6.039,6.039,0,0,1-6.035,6.035h0a1.754,1.754,0,0,0-1.769,1.769v2.5h-7.179Z" transform="translate(-495.7 -336.2)" fill="url(#linear-gradient-6)"/>
          </g>
        </g>
        <g id="Group_206" data-name="Group 206">
          <g id="Group_196" data-name="Group 196" transform="translate(393.399 147.537)">
            <path id="Path_7405" data-name="Path 7405" d="M494.579,350.516H437.354a3.952,3.952,0,0,1-3.954-3.954V274.354a3.952,3.952,0,0,1,3.954-3.954h57.225a3.952,3.952,0,0,1,3.954,3.954v72.208A3.952,3.952,0,0,1,494.579,350.516Z" transform="translate(-433.4 -266.03)" fill="#9abced" opacity="0.6"/>
            <path id="Path_7406" data-name="Path 7406" d="M498.012,347.98H440.786A4.773,4.773,0,0,1,436,343.194V270.986a4.773,4.773,0,0,1,4.786-4.786h57.225a4.773,4.773,0,0,1,4.786,4.786v72.208A4.647,4.647,0,0,1,498.012,347.98ZM440.89,267.865a3.13,3.13,0,0,0-3.121,3.121v72.208a3.13,3.13,0,0,0,3.121,3.121h57.225a3.13,3.13,0,0,0,3.121-3.121V270.986a3.13,3.13,0,0,0-3.121-3.121Z" transform="translate(-433.295 -266.2)" fill="#4f7eb7"/>
            <g id="Group_193" data-name="Group 193" transform="translate(9.78 14.775)">
              <path id="Path_7407" data-name="Path 7407" d="M455.494,295.591H442.8V280.4h12.694Zm-11.029-1.665h9.364V282.065h-9.364Z" transform="translate(-442.8 -280.4)" fill="#7ca6d8" opacity="0.71"/>
              <path id="Path_7408" data-name="Path 7408" d="M452.046,290.772,448.3,286.61l1.249-1.145,2.289,2.6A22.947,22.947,0,0,1,461.2,281.2l.624,1.561c-6.763,2.809-9.156,6.971-9.26,7.075Z" transform="translate(-442.577 -280.368)" fill="#ea9ba1"/>
              <path id="Path_7409" data-name="Path 7409" d="M486.913,285.9H467.249A1.2,1.2,0,0,1,466,284.649h0a1.2,1.2,0,0,1,1.249-1.249h19.665a1.2,1.2,0,0,1,1.249,1.249h0A1.2,1.2,0,0,1,486.913,285.9Z" transform="translate(-441.861 -280.279)" fill="#9abced"/>
              <path id="Path_7410" data-name="Path 7410" d="M486.913,291.7H467.249A1.2,1.2,0,0,1,466,290.449h0a1.2,1.2,0,0,1,1.249-1.249h19.665a1.2,1.2,0,0,1,1.249,1.249h0A1.2,1.2,0,0,1,486.913,291.7Z" transform="translate(-441.861 -280.044)" fill="#9abced"/>
            </g>
            <g id="Group_194" data-name="Group 194" transform="translate(9.78 38.081)">
              <path id="Path_7411" data-name="Path 7411" d="M455.494,317.991H442.8V302.8h12.694Zm-11.029-1.665h9.364V304.465h-9.364Z" transform="translate(-442.8 -302.8)" fill="#7ca6d8" opacity="0.71"/>
              <path id="Path_7412" data-name="Path 7412" d="M452.046,313.172,448.3,309.01l1.249-1.145,2.289,2.6A22.947,22.947,0,0,1,461.2,303.6l.624,1.561c-6.763,2.809-9.156,6.971-9.26,7.075Z" transform="translate(-442.577 -302.768)" fill="#ea9ba1"/>
              <path id="Path_7413" data-name="Path 7413" d="M486.913,308.3H467.249A1.2,1.2,0,0,1,466,307.049h0a1.2,1.2,0,0,1,1.249-1.249h19.665a1.2,1.2,0,0,1,1.249,1.249h0A1.2,1.2,0,0,1,486.913,308.3Z" transform="translate(-441.861 -302.679)" fill="#9abced"/>
              <path id="Path_7414" data-name="Path 7414" d="M486.913,314.1H467.249A1.2,1.2,0,0,1,466,312.849h0a1.2,1.2,0,0,1,1.249-1.249h19.665a1.2,1.2,0,0,1,1.249,1.249h0A1.2,1.2,0,0,1,486.913,314.1Z" transform="translate(-441.861 -302.444)" fill="#9abced"/>
            </g>
            <g id="Group_195" data-name="Group 195" transform="translate(9.78 61.387)">
              <path id="Path_7415" data-name="Path 7415" d="M455.494,340.391H442.8V325.2h12.694Zm-11.029-1.665h9.364V326.865h-9.364Z" transform="translate(-442.8 -325.2)" fill="#7ca6d8" opacity="0.71"/>
              <path id="Path_7416" data-name="Path 7416" d="M452.046,335.672,448.3,331.51l1.249-1.145,2.289,2.6A22.947,22.947,0,0,1,461.2,326.1l.624,1.561c-6.763,2.809-9.156,6.971-9.26,7.075Z" transform="translate(-442.577 -325.164)" fill="#ea9ba1"/>
              <path id="Path_7417" data-name="Path 7417" d="M486.913,330.7H467.249A1.2,1.2,0,0,1,466,329.449h0a1.2,1.2,0,0,1,1.249-1.249h19.665a1.2,1.2,0,0,1,1.249,1.249h0A1.2,1.2,0,0,1,486.913,330.7Z" transform="translate(-441.861 -325.079)" fill="#9abced"/>
              <path id="Path_7418" data-name="Path 7418" d="M486.913,336.6H467.249A1.2,1.2,0,0,1,466,335.349h0a1.2,1.2,0,0,1,1.249-1.249h19.665a1.2,1.2,0,0,1,1.249,1.249h0A1.265,1.265,0,0,1,486.913,336.6Z" transform="translate(-441.861 -324.84)" fill="#9abced"/>
            </g>
          </g>
          <g id="Group_199" data-name="Group 199" transform="translate(594.208 36)">
            <path id="Path_7419" data-name="Path 7419" d="M687.579,244.316H630.354a3.952,3.952,0,0,1-3.954-3.954V168.154a3.952,3.952,0,0,1,3.954-3.954h57.225a3.952,3.952,0,0,1,3.954,3.954v72.208A3.952,3.952,0,0,1,687.579,244.316Z" transform="translate(-626.4 -158.79)" fill="#9abced" opacity="0.6"/>
            <path id="Path_7420" data-name="Path 7420" d="M692.412,240.78H635.186a4.773,4.773,0,0,1-4.786-4.786V163.786A4.773,4.773,0,0,1,635.186,159h57.225a4.773,4.773,0,0,1,4.786,4.786v72.208A4.708,4.708,0,0,1,692.412,240.78Zm-57.121-80.22a3.13,3.13,0,0,0-3.121,3.121v72.312a3.13,3.13,0,0,0,3.121,3.121h57.225a3.13,3.13,0,0,0,3.121-3.121V163.786a3.13,3.13,0,0,0-3.121-3.121H635.29Z" transform="translate(-626.238 -159)" fill="#4f7eb7"/>
            <g id="Group_198" data-name="Group 198" transform="translate(7.803 13.422)" opacity="0.5">
              <circle id="Ellipse_516" data-name="Ellipse 516" cx="10.092" cy="10.092" r="10.092" transform="translate(0 3.225)" fill="#7ca6d8"/>
              <path id="Path_7421" data-name="Path 7421" d="M646.1,183.865l6.659-11.965c6.139,1.561,9.052,7.283,6.139,13.214Z" transform="translate(-633.406 -171.9)" fill="#e83f54"/>
              <g id="Group_197" data-name="Group 197" transform="translate(0.624 31.318)">
                <circle id="Ellipse_517" data-name="Ellipse 517" cx="2.913" cy="2.913" r="2.913" fill="#9abced"/>
                <circle id="Ellipse_518" data-name="Ellipse 518" cx="2.913" cy="2.913" r="2.913" transform="translate(0 13.006)" fill="#9abced"/>
                <path id="Path_7422" data-name="Path 7422" d="M677.824,207.927h-23.41a2.908,2.908,0,0,1-2.913-2.913h0a2.908,2.908,0,0,1,2.913-2.913h23.41a2.908,2.908,0,0,1,2.913,2.913h0A2.844,2.844,0,0,1,677.824,207.927Z" transform="translate(-633.812 -201.996)" fill="#9abced"/>
                <path id="Path_7423" data-name="Path 7423" d="M677.824,220.327h-23.41a2.908,2.908,0,0,1-2.913-2.913h0a2.908,2.908,0,0,1,2.913-2.913h23.41a2.908,2.908,0,0,1,2.913,2.913h0A2.786,2.786,0,0,1,677.824,220.327Z" transform="translate(-633.812 -201.494)" fill="#9abced"/>
                <circle id="Ellipse_519" data-name="Ellipse 519" cx="2.913" cy="2.913" r="2.913" transform="translate(0 26.22)" fill="#9abced"/>
                <path id="Path_7424" data-name="Path 7424" d="M677.824,233.027h-23.41a2.908,2.908,0,0,1-2.913-2.913h0a2.908,2.908,0,0,1,2.913-2.913h23.41a2.908,2.908,0,0,1,2.913,2.913h0A2.786,2.786,0,0,1,677.824,233.027Z" transform="translate(-633.812 -200.98)" fill="#9abced"/>
              </g>
            </g>
          </g>
          <g id="Group_201" data-name="Group 201" transform="translate(100.717)">
            <path id="Path_7425" data-name="Path 7425" d="M217.579,222.238H160.354a3.952,3.952,0,0,1-3.954-3.954v-85.63a3.952,3.952,0,0,1,3.954-3.954h57.225a3.952,3.952,0,0,1,3.954,3.954v85.63A3.952,3.952,0,0,1,217.579,222.238Z" transform="translate(-151.926 -124.226)" fill="#9abced" opacity="0.6"/>
            <path id="Path_7426" data-name="Path 7426" d="M214.112,219.6H156.886a4.773,4.773,0,0,1-4.786-4.786v-85.63a4.773,4.773,0,0,1,4.786-4.786h57.225a4.773,4.773,0,0,1,4.786,4.786v85.63A4.773,4.773,0,0,1,214.112,219.6ZM156.99,125.961a3.13,3.13,0,0,0-3.121,3.121v85.63a3.13,3.13,0,0,0,3.121,3.121h57.225a3.13,3.13,0,0,0,3.121-3.121v-85.63a3.13,3.13,0,0,0-3.121-3.121H156.99Z" transform="translate(-152.1 -124.4)" fill="#4f7eb7"/>
            <g id="Group_200" data-name="Group 200" transform="translate(10.405 16.751)">
              <path id="Path_7427" data-name="Path 7427" d="M185.229,166.037l-.832.728a1.288,1.288,0,0,1-1.769-.1l-8.428-9.468,2.705-2.393,8.428,9.468A1.288,1.288,0,0,1,185.229,166.037Z" transform="translate(-161.61 -139.921)" fill="#7ca6d8"/>
              <path id="Path_7428" data-name="Path 7428" d="M171.776,140.5a9.676,9.676,0,1,0,9.676,9.676A9.658,9.658,0,0,0,171.776,140.5Zm0,16.231a6.555,6.555,0,1,1,6.555-6.555A6.594,6.594,0,0,1,171.776,156.731Z" transform="translate(-162.1 -140.5)" fill="#7ca6d8"/>
              <path id="Path_7429" data-name="Path 7429" d="M209.56,145.738H194.369a1.823,1.823,0,0,1-1.769-1.769h0a1.823,1.823,0,0,1,1.769-1.769H209.56a1.823,1.823,0,0,1,1.769,1.769h0A1.754,1.754,0,0,1,209.56,145.738Z" transform="translate(-160.866 -140.431)" fill="#9abced"/>
              <path id="Path_7430" data-name="Path 7430" d="M209.56,154.438H194.369a1.823,1.823,0,0,1-1.769-1.769h0a1.823,1.823,0,0,1,1.769-1.769H209.56a1.823,1.823,0,0,1,1.769,1.769h0A1.693,1.693,0,0,1,209.56,154.438Z" transform="translate(-160.866 -140.079)" fill="#9abced"/>
              <path id="Path_7431" data-name="Path 7431" d="M209.56,162.538H194.369a1.823,1.823,0,0,1-1.769-1.769h0A1.823,1.823,0,0,1,194.369,159H209.56a1.823,1.823,0,0,1,1.769,1.769h0A1.754,1.754,0,0,1,209.56,162.538Z" transform="translate(-160.866 -139.751)" fill="#9abced"/>
              <path id="Path_7432" data-name="Path 7432" d="M191.687,184.954h-23.41a1.976,1.976,0,0,1-1.977-1.977h0A1.976,1.976,0,0,1,168.277,181h23.41a1.976,1.976,0,0,1,1.977,1.977h0A1.976,1.976,0,0,1,191.687,184.954Z" transform="translate(-161.93 -138.861)" fill="#9abced"/>
              <path id="Path_7433" data-name="Path 7433" d="M191.687,196.854h-23.41a1.976,1.976,0,0,1-1.977-1.977h0a1.976,1.976,0,0,1,1.977-1.977h23.41a1.976,1.976,0,0,1,1.977,1.977h0A1.913,1.913,0,0,1,191.687,196.854Z" transform="translate(-161.93 -138.38)" fill="#9abced"/>
              <path id="Path_7434" data-name="Path 7434" d="M191.687,208.854h-23.41a1.976,1.976,0,0,1-1.977-1.977h0a1.976,1.976,0,0,1,1.977-1.977h23.41a1.976,1.976,0,0,1,1.977,1.977h0A1.913,1.913,0,0,1,191.687,208.854Z" transform="translate(-161.93 -137.894)" fill="#9abced"/>
              <circle id="Ellipse_520" data-name="Ellipse 520" cx="3.225" cy="3.225" r="3.225" transform="translate(41.723 40.89)" fill="#9abced"/>
              <circle id="Ellipse_521" data-name="Ellipse 521" cx="3.225" cy="3.225" r="3.225" transform="translate(41.723 53.272)" fill="#9abced"/>
              <circle id="Ellipse_522" data-name="Ellipse 522" cx="3.225" cy="3.225" r="3.225" transform="translate(41.723 65.757)" fill="#9abced"/>
            </g>
          </g>
          <g id="Group_203" data-name="Group 203" transform="translate(334.196 11.445)">
            <path id="Path_7435" data-name="Path 7435" d="M488.038,223.037H383.367a6.86,6.86,0,0,1-6.867-6.867v-69.5a6.86,6.86,0,0,1,6.867-6.867h104.67a6.86,6.86,0,0,1,6.867,6.867v69.5A6.8,6.8,0,0,1,488.038,223.037Z" transform="translate(-376.5 -135.222)" fill="#9abced" opacity="0.6"/>
            <path id="Path_7436" data-name="Path 7436" d="M491.574,220.3H386.8a7.682,7.682,0,0,1-7.7-7.7V143.1a7.682,7.682,0,0,1,7.7-7.7H491.47a7.682,7.682,0,0,1,7.7,7.7v69.5A7.593,7.593,0,0,1,491.574,220.3ZM386.8,136.857a6.039,6.039,0,0,0-6.035,6.035v69.5a6.039,6.039,0,0,0,6.035,6.035H491.47a6.039,6.039,0,0,0,6.035-6.035v-69.5a6.039,6.039,0,0,0-6.035-6.035Z" transform="translate(-376.395 -135.4)" fill="#4f7eb7"/>
            <g id="Group_202" data-name="Group 202" transform="translate(11.653 15.399)">
              <path id="Path_7437" data-name="Path 7437" d="M448.875,156.235H390.817a3.019,3.019,0,0,1-3.017-3.017h0a3.019,3.019,0,0,1,3.017-3.017h58.058a3.02,3.02,0,0,1,3.017,3.017h0A3.02,3.02,0,0,1,448.875,156.235Z" transform="translate(-387.696 -150.2)" fill="#9abced" opacity="0.5"/>
              <path id="Path_7438" data-name="Path 7438" d="M449.712,200.223H389.885a2.2,2.2,0,0,1-2.185-2.185V168.385a2.2,2.2,0,0,1,2.185-2.185h59.827a2.2,2.2,0,0,1,2.185,2.185v29.653A2.134,2.134,0,0,1,449.712,200.223Z" transform="translate(-387.7 -149.553)" fill="#7ca6d8" opacity="0.71"/>
              <path id="Path_7439" data-name="Path 7439" d="M476.885,156.235H459.717a3.02,3.02,0,0,1-3.017-3.017h0a3.019,3.019,0,0,1,3.017-3.017h17.168a3.02,3.02,0,0,1,3.017,3.017h0A3.02,3.02,0,0,1,476.885,156.235Z" transform="translate(-384.908 -150.2)" fill="#9abced" opacity="0.5"/>
              <path id="Path_7440" data-name="Path 7440" d="M477.973,171.646h-18a1.865,1.865,0,0,1-1.873-1.873h0a1.865,1.865,0,0,1,1.873-1.873h18a1.865,1.865,0,0,1,1.873,1.873h0A1.865,1.865,0,0,1,477.973,171.646Z" transform="translate(-384.852 -149.484)" fill="#9abced" opacity="0.5"/>
              <path id="Path_7441" data-name="Path 7441" d="M477.973,179.846h-18a1.865,1.865,0,0,1-1.873-1.873h0a1.865,1.865,0,0,1,1.873-1.873h18a1.865,1.865,0,0,1,1.873,1.873h0A1.865,1.865,0,0,1,477.973,179.846Z" transform="translate(-384.852 -149.152)" fill="#9abced" opacity="0.5"/>
              <path id="Path_7442" data-name="Path 7442" d="M477.973,188.046h-18a1.865,1.865,0,0,1-1.873-1.873h0a1.865,1.865,0,0,1,1.873-1.873h18a1.865,1.865,0,0,1,1.873,1.873h0A1.865,1.865,0,0,1,477.973,188.046Z" transform="translate(-384.852 -148.82)" fill="#9abced" opacity="0.5"/>
              <path id="Path_7443" data-name="Path 7443" d="M477.973,196.246h-18a1.865,1.865,0,0,1-1.873-1.873h0a1.865,1.865,0,0,1,1.873-1.873h18a1.865,1.865,0,0,1,1.873,1.873h0A1.865,1.865,0,0,1,477.973,196.246Z" transform="translate(-384.852 -148.488)" fill="#9abced" opacity="0.5"/>
              <path id="Path_7444" data-name="Path 7444" d="M468.095,211.894H401.3a2.532,2.532,0,0,1-2.5-2.5h0a2.532,2.532,0,0,1,2.5-2.5h66.8a2.532,2.532,0,0,1,2.5,2.5h0A2.532,2.532,0,0,1,468.095,211.894Z" transform="translate(-387.251 -147.906)" fill="#9abced" opacity="0.5"/>
            </g>
          </g>
          <g id="Group_205" data-name="Group 205" transform="translate(0 108.416)">
            <path id="Path_7445" data-name="Path 7445" d="M164.775,304.572H65.618A5.6,5.6,0,0,1,60,298.953V238.919a5.6,5.6,0,0,1,5.618-5.618h99.156a5.6,5.6,0,0,1,5.618,5.618v60.035A5.6,5.6,0,0,1,164.775,304.572Z" transform="translate(-55.11 -228.41)" fill="#9abced" opacity="0.6"/>
            <path id="Path_7446" data-name="Path 7446" d="M160.907,301.536H61.751a6.483,6.483,0,0,1-6.451-6.451V235.051a6.483,6.483,0,0,1,6.451-6.451h99.156a6.483,6.483,0,0,1,6.451,6.451v60.035A6.483,6.483,0,0,1,160.907,301.536ZM61.751,230.265a4.773,4.773,0,0,0-4.786,4.786v60.035a4.773,4.773,0,0,0,4.786,4.786h99.156a4.773,4.773,0,0,0,4.786-4.786V235.051a4.773,4.773,0,0,0-4.786-4.786Z" transform="translate(-55.3 -228.6)" fill="#4f7eb7"/>
            <g id="Group_204" data-name="Group 204" transform="translate(19.665 13.526)" opacity="0.5">
              <path id="Path_7447" data-name="Path 7447" d="M99.147,265.947A14.262,14.262,0,1,1,89.054,241.6a16.84,16.84,0,0,1,4.578.728L89.054,255.75Z" transform="translate(-74.176 -241.6)" fill="#7ca6d8"/>
              <path id="Path_7448" data-name="Path 7448" d="M104.469,254.745a12.032,12.032,0,0,1-3.538,8.532L92.4,254.745,96.25,243.3A12.036,12.036,0,0,1,104.469,254.745Z" transform="translate(-73.464 -241.531)" fill="#e83f54"/>
              <path id="Path_7449" data-name="Path 7449" d="M151.471,270.9H118.8V243.332a.832.832,0,0,1,1.665,0V269.24h31.006a.832.832,0,0,1,0,1.665Z" transform="translate(-72.395 -241.564)" fill="#9abced"/>
              <rect id="Rectangle_238" data-name="Rectangle 238" width="4.162" height="12.486" transform="translate(53.168 15.087)" fill="#9abced"/>
              <rect id="Rectangle_239" data-name="Rectangle 239" width="4.162" height="18.936" transform="translate(61.907 8.74)" fill="#e83f54"/>
              <rect id="Rectangle_240" data-name="Rectangle 240" width="4.162" height="9.468" transform="translate(70.335 18.208)" fill="#9abced"/>
              <path id="Path_7450" data-name="Path 7450" d="M95.425,282.213H75.657a1.422,1.422,0,0,1-1.457-1.457h0a1.422,1.422,0,0,1,1.457-1.457H95.321a1.422,1.422,0,0,1,1.457,1.457h0A1.34,1.34,0,0,1,95.425,282.213Z" transform="translate(-74.2 -240.075)" fill="#9abced"/>
              <path id="Path_7451" data-name="Path 7451" d="M124.221,282.213H104.557a1.422,1.422,0,0,1-1.457-1.457h0a1.422,1.422,0,0,1,1.457-1.457h19.665a1.422,1.422,0,0,1,1.457,1.457h0A1.422,1.422,0,0,1,124.221,282.213Z" transform="translate(-73.031 -240.075)" fill="#9abced"/>
              <path id="Path_7452" data-name="Path 7452" d="M151.321,282.213H131.657a1.422,1.422,0,0,1-1.457-1.457h0a1.422,1.422,0,0,1,1.457-1.457h19.665a1.422,1.422,0,0,1,1.457,1.457h0A1.422,1.422,0,0,1,151.321,282.213Z" transform="translate(-71.934 -240.075)" fill="#9abced"/>
              <path id="Path_7453" data-name="Path 7453" d="M107.825,292.313H88.057a1.422,1.422,0,0,1-1.457-1.457h0a1.422,1.422,0,0,1,1.457-1.457h19.769a1.422,1.422,0,0,1,1.457,1.457h0A1.567,1.567,0,0,1,107.825,292.313Z" transform="translate(-73.698 -239.666)" fill="#9abced"/>
              <path id="Path_7454" data-name="Path 7454" d="M134.921,292.313H115.257a1.422,1.422,0,0,1-1.457-1.457h0a1.422,1.422,0,0,1,1.457-1.457h19.665a1.422,1.422,0,0,1,1.457,1.457h0A1.566,1.566,0,0,1,134.921,292.313Z" transform="translate(-72.598 -239.666)" fill="#9abced"/>
            </g>
          </g>
        </g>
      </g>
    </g>
  </g>
</svg>
