<svg xmlns="http://www.w3.org/2000/svg" width="88.823" height="88.823" viewBox="0 0 88.823 88.823"><defs><style>.a{fill:#fff;}</style></defs><path class="a" d="M86.221,0H75.638a2.6,2.6,0,0,0-2.6,2.6V5.2h-21.3a7.76,7.76,0,0,0-14.655,0h-21.3V2.6a2.6,2.6,0,0,0-2.6-2.6H2.6A2.6,2.6,0,0,0,0,2.6V13.011a2.6,2.6,0,0,0,2.6,2.6H13.185a2.6,2.6,0,0,0,2.6-2.6V10.374H26.474a33.947,33.947,0,0,0-15.7,26.65,7.784,7.784,0,1,0,5.194.118A28.556,28.556,0,0,1,37.5,11.363a7.741,7.741,0,0,0,13.819,0A28.556,28.556,0,0,1,72.852,37.141a7.829,7.829,0,1,0,5.194-.117,33.884,33.884,0,0,0-15.7-26.615H73.036v2.6a2.6,2.6,0,0,0,2.6,2.6H86.221a2.6,2.6,0,0,0,2.6-2.6V2.6A2.6,2.6,0,0,0,86.221,0Z"/><g transform="translate(26.594 78.241)"><path class="a" d="M188.816,458.355a10.582,10.582,0,0,0-9.9-7.355H163.3a10.582,10.582,0,0,0-9.9,7.355,2.564,2.564,0,0,0,2.531,3.228h30.346A2.564,2.564,0,0,0,188.816,458.355Z" transform="translate(-153.294 -451)"/></g><g transform="translate(20.991 22.806)"><path class="a" d="M167.4,162.03l-20.381-30.571v24.687a7.807,7.807,0,1,1-5.2,0V131.459L121.437,162.03a2.6,2.6,0,0,0,.325,3.283,32.86,32.86,0,0,1,9.009,17.533,15.5,15.5,0,0,1,5.842-1.157h15.613a15.5,15.5,0,0,1,5.842,1.157,32.858,32.858,0,0,1,9.009-17.533A2.6,2.6,0,0,0,167.4,162.03Z" transform="translate(-121 -131.459)"/></g><g transform="translate(41.809 52.218)"><path class="a" d="M243.6,301a2.6,2.6,0,1,0,2.6,2.6A2.6,2.6,0,0,0,243.6,301Z" transform="translate(-241 -301)"/></g></svg>