<svg xmlns="http://www.w3.org/2000/svg" width="94.708" height="89.481" viewBox="0 0 94.708 89.481"><defs><style>.a{fill:#fff;}</style></defs><g transform="translate(0 -0.47)"><g transform="translate(0 0.47)"><path class="a" d="M62.736,42.391C69.927,39.132,71,14.322,66.756,7.014c-5.542-9.54-31.884-7.624-40.2-.805C25.6,9.6,25.7,15.743,25.743,20.63H51.852v2.288h-26.1c0,.033-11.622.072-11.622.072-20.04,0-19.623,43.522,6.819,43.522,0,0,.972-9.64,2.671-14.47C28.864,37.133,50.908,47.755,62.736,42.391ZM35.4,17.1a5.453,5.453,0,1,1,5.453-5.453A5.447,5.447,0,0,1,35.4,17.1Z" transform="translate(0 -0.47)"/><path class="a" d="M52.5,4.691S51.8,14.336,50.1,19.161c-5.247,14.9-27.286,4.287-39.119,9.651C3.8,32.072,2.715,56.881,6.963,64.189c5.536,9.545,31.878,7.629,40.2.805.955-3.382.855-9.529.811-14.415H21.861V48.291h26.1c0-.033,12.866-.072,12.866-.072C79.3,48.219,80.954,4.691,52.5,4.691ZM37.381,53.161a5.45,5.45,0,1,1-5.447,5.453A5.452,5.452,0,0,1,37.381,53.161Z" transform="translate(20.357 18.744)"/></g></g></svg>