<svg xmlns="http://www.w3.org/2000/svg" width="85.089" height="86.853" viewBox="0 0 85.089 86.853"><defs><style>.a{fill:#fff;}</style></defs><g transform="translate(0)"><path class="a" d="M12.971,82.642,5.165,84.816l7.806,28.033Z" transform="translate(-5.165 -68.535)"/><path class="a" d="M115.182,483.167l1.219,4.376,15.715-4.376Z" transform="translate(-96.402 -400.69)"/><path class="a" d="M133.268,77.356,116.73,60.818H94.166V55.7h17.444l-5.637-5.637H94.166V44.939h9.113L100.813,39.3H94.166V34.181h4.407L97.1,30.821l7.682,3.361h24.777V39.3H115.953l5.637,5.637h7.972V50.06h-2.851l15.3,15.3V0H80.895V77.356ZM94.513,12.666h19.607v5.121H94.513Zm0,10.758h35.049v5.121H94.513Z" transform="translate(-67.968)"/><path class="a" d="M239.608,241.194l-5.558-2.431,2.431,5.558,33.305,33.305,3.127-3.127Z" transform="translate(-194.979 -198.006)"/><path class="a" d="M467.743,469.33l-3.127,3.127,2.909,2.909a2.136,2.136,0,0,0,3.018,0l.109-.109a2.133,2.133,0,0,0,0-3.017Z" transform="translate(-386.188 -389.215)"/></g></svg>