<svg xmlns="http://www.w3.org/2000/svg" width="84.559" height="79.275" viewBox="0 0 84.559 79.275"><defs><style>.a{fill:#fff;}</style></defs><g transform="translate(0 -16)"><path class="a" d="M283.2,184.3a23.492,23.492,0,0,1-.595,5.3,27.066,27.066,0,0,1-14.269,18.382,2.033,2.033,0,0,1,.049.545A27.174,27.174,0,0,1,256,231.32a26.79,26.79,0,0,0,14.864,4.459A27.157,27.157,0,0,0,283.2,184.3Z" transform="translate(-213.72 -140.504)"/><path class="a" d="M218.682,340.74A25.8,25.8,0,0,1,211.3,339.7a22.219,22.219,0,0,0,7.382,15.112,22.22,22.22,0,0,0,7.382-15.112A25.8,25.8,0,0,1,218.682,340.74Z" transform="translate(-176.403 -270.238)"/><path class="a" d="M29.893,208.528a2.032,2.032,0,0,1,.05-.545A27.066,27.066,0,0,1,15.673,189.6a23.493,23.493,0,0,1-.595-5.3,27.157,27.157,0,0,0,12.337,51.479,26.791,26.791,0,0,0,14.864-4.459A27.174,27.174,0,0,1,29.893,208.528Z" transform="translate(0 -140.504)"/><path class="a" d="M122.8,197.173a22.342,22.342,0,0,0,10.256,15.26,27.03,27.03,0,0,1,7.63-13.675A22.121,22.121,0,0,0,122.8,197.173Z" transform="translate(-102.519 -150.256)"/><path class="a" d="M298.786,197.172a22.119,22.119,0,0,0-17.886,1.585,27.031,27.031,0,0,1,7.63,13.675A22.341,22.341,0,0,0,298.786,197.172Z" transform="translate(-234.508 -150.255)"/><path class="a" d="M219.935,244.87a21.143,21.143,0,0,0,7.135-1.189,21.882,21.882,0,0,0-7.135-12.882,21.882,21.882,0,0,0-7.135,12.882A21.144,21.144,0,0,0,219.935,244.87Z" transform="translate(-177.655 -179.324)"/><path class="a" d="M118.251,45.232a26.856,26.856,0,0,1,27.2-1.437,2.032,2.032,0,0,0,.05-.545,27.251,27.251,0,1,0-54.5,0,2.033,2.033,0,0,0,.05.545A26.857,26.857,0,0,1,118.251,45.232Z" transform="translate(-75.971 0)"/></g></svg>