<svg xmlns="http://www.w3.org/2000/svg" width="87.154" height="87.154" viewBox="0 0 87.154 87.154"><defs><style>.a{fill:#fff;}</style></defs><path class="a" d="M43.577,0A43.577,43.577,0,1,0,87.154,43.577,43.626,43.626,0,0,0,43.577,0ZM4.394,43.574A38.865,38.865,0,0,1,7.786,27.635l18.695,51.2A39.2,39.2,0,0,1,4.394,43.574ZM43.577,82.76a38.935,38.935,0,0,1-11.069-1.6L44.264,47,56.3,80a5.894,5.894,0,0,0,.28.545,39.235,39.235,0,0,1-13,2.215ZM48.97,25.22v0c2.353-.123,4.478-.367,4.478-.367a1.623,1.623,0,0,0-.247-3.236s-6.344.49-10.437.49c-3.849,0-10.317-.49-10.317-.49-2.106-.123-2.35,3.112-.243,3.236,0,0,2,.247,4.111.367l6.1,16.726L33.838,67.65,19.573,25.217c2.357-.123,4.481-.367,4.481-.367a1.623,1.623,0,0,0-.247-3.236s-6.344.49-10.437.49c-.737,0-1.6-.018-2.531-.051a39.188,39.188,0,0,1,59.2-7.383,4.84,4.84,0,0,0-.508-.033A6.781,6.781,0,0,0,62.958,21.6c0,3.232,1.863,5.956,3.849,9.191a20.568,20.568,0,0,1,3.236,10.807c0,3.355-1.282,7.237-2.989,12.67l-3.9,13.055Zm29-.443A39.188,39.188,0,0,1,63.278,77.44l0,0,11.966-34.6A37.1,37.1,0,0,0,78.228,28.8a29.017,29.017,0,0,0-.261-4.02Z"/></svg>